<mxfile host="app.diagrams.net" modified="2024-03-15T05:21:59.473Z" agent="Mozilla/5.0 (Macintosh; Intel Mac OS X 10_15_7) AppleWebKit/537.36 (KHTML, like Gecko) Chrome/122.0.0.0 Safari/537.36" etag="KA699qPdpjc6ocJiONhD" version="24.0.5" type="github">
  <diagram name="第 1 页" id="v1CmixkzZ4-OJ-HVU0kA">
    <mxGraphModel dx="1674" dy="790" grid="1" gridSize="10" guides="1" tooltips="1" connect="1" arrows="1" fold="1" page="1" pageScale="1" pageWidth="827" pageHeight="1169" math="0" shadow="0">
      <root>
        <mxCell id="0" />
        <mxCell id="1" parent="0" />
        <mxCell id="dJucNik5WQUSCbAg4U3I-27" value="" style="edgeStyle=orthogonalEdgeStyle;rounded=0;orthogonalLoop=1;jettySize=auto;html=1;" edge="1" parent="1" source="dJucNik5WQUSCbAg4U3I-1" target="dJucNik5WQUSCbAg4U3I-14">
          <mxGeometry relative="1" as="geometry" />
        </mxCell>
        <mxCell id="dJucNik5WQUSCbAg4U3I-1" value="请求中包含deviceid" style="rounded=0;whiteSpace=wrap;html=1;" vertex="1" parent="1">
          <mxGeometry x="90" y="180" width="120" height="60" as="geometry" />
        </mxCell>
        <mxCell id="dJucNik5WQUSCbAg4U3I-28" value="" style="edgeStyle=orthogonalEdgeStyle;rounded=0;orthogonalLoop=1;jettySize=auto;html=1;" edge="1" parent="1" source="dJucNik5WQUSCbAg4U3I-4" target="dJucNik5WQUSCbAg4U3I-14">
          <mxGeometry relative="1" as="geometry" />
        </mxCell>
        <mxCell id="dJucNik5WQUSCbAg4U3I-4" value="请求中包含deviceid+ticket" style="rounded=0;whiteSpace=wrap;html=1;" vertex="1" parent="1">
          <mxGeometry x="260" y="180" width="120" height="60" as="geometry" />
        </mxCell>
        <mxCell id="dJucNik5WQUSCbAg4U3I-29" value="" style="edgeStyle=orthogonalEdgeStyle;rounded=0;orthogonalLoop=1;jettySize=auto;html=1;" edge="1" parent="1" source="dJucNik5WQUSCbAg4U3I-5" target="dJucNik5WQUSCbAg4U3I-21">
          <mxGeometry relative="1" as="geometry" />
        </mxCell>
        <mxCell id="dJucNik5WQUSCbAg4U3I-5" value="请求中包含ticket" style="rounded=0;whiteSpace=wrap;html=1;" vertex="1" parent="1">
          <mxGeometry x="430" y="180" width="120" height="60" as="geometry" />
        </mxCell>
        <mxCell id="dJucNik5WQUSCbAg4U3I-26" value="" style="edgeStyle=orthogonalEdgeStyle;rounded=0;orthogonalLoop=1;jettySize=auto;html=1;" edge="1" parent="1" source="dJucNik5WQUSCbAg4U3I-6" target="dJucNik5WQUSCbAg4U3I-25">
          <mxGeometry relative="1" as="geometry" />
        </mxCell>
        <mxCell id="dJucNik5WQUSCbAg4U3I-6" value="请求没有ticket和device" style="rounded=0;whiteSpace=wrap;html=1;" vertex="1" parent="1">
          <mxGeometry x="600" y="180" width="120" height="60" as="geometry" />
        </mxCell>
        <mxCell id="dJucNik5WQUSCbAg4U3I-14" value="deviceid 作为ticket标识" style="whiteSpace=wrap;html=1;rounded=0;" vertex="1" parent="1">
          <mxGeometry x="160" y="350" width="120" height="60" as="geometry" />
        </mxCell>
        <mxCell id="dJucNik5WQUSCbAg4U3I-21" value="ticket作为标识" style="whiteSpace=wrap;html=1;rounded=0;" vertex="1" parent="1">
          <mxGeometry x="430" y="340" width="120" height="60" as="geometry" />
        </mxCell>
        <mxCell id="dJucNik5WQUSCbAg4U3I-25" value="提示更新APP或者重启浏览器" style="whiteSpace=wrap;html=1;rounded=0;" vertex="1" parent="1">
          <mxGeometry x="600" y="340" width="120" height="60" as="geometry" />
        </mxCell>
      </root>
    </mxGraphModel>
  </diagram>
</mxfile>
